<svg xmlns="http://www.w3.org/2000/svg" width="34.914" height="34.916" viewBox="0 0 34.914 34.916"><defs><style>.a{opacity:0.8;}.b{fill:#fff;}</style></defs><g class="a" transform="translate(0 0.004)"><g transform="translate(0 -0.004)"><path class="b" d="M6.63,16.95h4.885a2.91,2.91,0,1,0-.582-5.761,2.478,2.478,0,0,0-4.209.407A2.68,2.68,0,1,0,6.63,16.95Zm0-4.2a1.526,1.526,0,0,1,.346.04.582.582,0,0,0,.7-.43,1.307,1.307,0,0,1,1.274-1,1.293,1.293,0,0,1,1.188.752.582.582,0,0,0,.738.3,1.746,1.746,0,1,1,.64,3.375H6.63a1.516,1.516,0,0,1,0-3.032Z" transform="translate(-1.623 -4.844)"/><path class="b" d="M47.817,11.754A2.68,2.68,0,1,0,47.723,6.4a2.478,2.478,0,0,0-4.209-.407,2.91,2.91,0,1,0-.582,5.765ZM41.183,8.841a1.746,1.746,0,0,1,2.386-1.629.582.582,0,0,0,.74-.3,1.294,1.294,0,0,1,1.186-.749,1.307,1.307,0,0,1,1.274,1,.582.582,0,0,0,.7.43,1.516,1.516,0,1,1,.346,2.993H42.929a1.75,1.75,0,0,1-1.746-1.749Z" transform="translate(-16.743 -2.67)"/><path class="b" d="M34.332,34.749H32.586v-2.91a.582.582,0,1,0-1.164,0v2.19L19.411,10.006l3.241-6.481a1.748,1.748,0,1,0-3.127-1.562L17.457,6.1,15.39,1.963a1.748,1.748,0,1,0-3.127,1.562L15.5,10.006,3.491,34.029v-2.19a.582.582,0,0,0-1.164,0v2.91H.582a.582.582,0,1,0,0,1.164h33.75a.582.582,0,0,0,0-1.164Zm-11.842,0-4.443-10a1.1,1.1,0,0,0-.009-.2V18.635a1.145,1.145,0,0,0,.241-.18l.923-.923.923.923a1.164,1.164,0,0,0,1.646,0l.375-.375,8.335,16.669ZM12.767,18.08l.375.375a1.164,1.164,0,0,0,1.646,0l.923-.923.923.923a1.145,1.145,0,0,0,.241.18v4.911a1.164,1.164,0,0,0-.763.294l-6.288,5.6a1.158,1.158,0,0,0-.368,1.1,1.137,1.137,0,0,0,.745.862c1.465.514,1.867,2.386,1.978,3.35H4.433Zm4.69-9.38L21.6,16.983l-.65.65-.923-.923a1.164,1.164,0,0,0-1.646,0l-.92.92h0l-.923-.92a1.164,1.164,0,0,0-1.646,0l-.923.923-.65-.65Zm-.582,16.033-3.8,8.554A4.166,4.166,0,0,0,10.6,30.309l6.278-5.6Zm.582,1.556,3.76,8.46H13.7Zm3.109-23.8A.585.585,0,0,1,21.613,3l-2.851,5.7L18.108,7.4ZM13.3,3a.585.585,0,1,1,1.047-.52L16.806,7.4,16.154,8.7Z" transform="translate(0 -0.996)"/><circle class="b" cx="0.5" cy="0.5" r="0.5" transform="translate(15.445 18.444)"/><circle class="b" cx="0.5" cy="0.5" r="0.5" transform="translate(18.445 18.444)"/></g></g></svg>